PathFileType	3	(X/Y/Z)	D:\Vicon Setup\UG\Test1\New Session\NewSession16.trc
DataRate	CameraRate	NumFrames	NumMarkers	Units	OrigDataRate	OrigDataStartFrame	OrigNumFrames
100.0	100.0	12	27	mm	100.0	327	357	
Frame#	Time	Sternum			LShoulder			RShoulder			LASIS			RASIS			RPSIS			LPSIS			RKneeLateral			RKneeMedial			RFibulaHead			RMidShank			RAnkleLateral			RAnkleMedial			RHeel			RMT5			RMT2			RToe			LKneeLateral			LKneeMedial			LFibulaHead			LMidShank			LAnkleLateral			LAnkleMedial			LHeel			LMT5			LMT2			LToe			
		X1	Y1	Z1	X2	Y2	Z2	X3	Y3	Z3	X4	Y4	Z4	X5	Y5	Z5	X6	Y6	Z6	X7	Y7	Z7	X8	Y8	Z8	X9	Y9	Z9	X10	Y10	Z10	X11	Y11	Z11	X12	Y12	Z12	X13	Y13	Z13	X14	Y14	Z14	X15	Y15	Z15	X16	Y16	Z16	X17	Y17	Z17	X18	Y18	Z18	X19	Y19	Z19	X20	Y20	Z20	X21	Y21	Z21	X22	Y22	Z22	X23	Y23	Z23	X24	Y24	Z24	X25	Y25	Z25	X26	Y26	Z26	X27	Y27	Z27	
327	3.26	-217.04407	1323.4146	-4389.2686	-15.24763	1399.5662	-4462.7095	-393.84344	1390.9768	-4473.9634	-89.110596	954.44226	-4504.186	-347.55417	980.10504	-4497.2026	-279.59854	1018.8459	-4668.8022	-148.97473	1020.5053	-4671.3223	-367.75446	539.97113	-4407.9937	-238.5249	524.17175	-4390.9878	-371.73331	476.19281	-4431.4512	-286.04733	335.33133	-4509.542	-266.36951	207.72978	-4620.5752	-339.93521	213.53049	-4679.6499	-274.17682	228.79222	-4746.1821	-383.06036	75.895134	-4596.4321	-322.03311	101.56763	-4572.2349	-328.44666	69.652061	-4540.4453	-97.308319	490.31213	-4643.5903	-226.05188	481.18375	-4630.9517	-97.292374	436.42557	-4679.3076	-195.62209	292.22528	-4722.5063	-156.89563	138.03629	-4868.6221	-239.91487	141.00719	-4821.5361	-226.25108	125.12788	-4948.1562	-105.70017	37.432064	-4782.7944	-169.66714	54.252472	-4742.1753	-171.93031	41.23933	-4709.4136
328	3.27	-218.18364	1330.9387	-4363.5127	-15.735675	1407.1021	-4435.0024	-394.03467	1397.2931	-4450.79	-87.962036	958.69507	-4476.6191	-346.41806	986.55493	-4470.0923	-277.68726	1022.8691	-4641.522	-147.72522	1026.0439	-4642.834	-369.38947	547.41797	-4376.5425	-239.99045	532.43567	-4359.3203	-372.60538	480.19092	-4398.0596	-285.37817	335.29477	-4467.0576	-264.02255	200.66544	-4568.2407	-337.26447	200.74713	-4627.9365	-271.47314	211.7951	-4695.3486	-379.0387	69.435631	-4534.583	-318.54227	97.924591	-4512.4731	-324.59308	68.776009	-4478.1294	-98.269264	497.86319	-4630.5952	-228.39133	490.29608	-4622.9507	-97.671349	445.81076	-4668.3906	-193.8604	301.93204	-4710.1328	-155.51154	146.11263	-4859.2793	-238.1893	148.12335	-4812.5283	-225.33643	138.71899	-4938.2983	-105.54718	37.811195	-4780.8892	-169.05432	53.459167	-4738.9116	-171.89738	41.293682	-4708.9253
329	3.28	-219.45691	1338.6002	-4337.8091	-16.424751	1414.7607	-4407.2192	-394.23947	1403.7106	-4427.3369	-87.654694	963.59888	-4448.5244	-345.47763	992.60315	-4442.8311	-276.66571	1027.4634	-4613.8193	-146.92075	1031.8258	-4613.8872	-370.90692	553.73706	-4346.5811	-241.78114	539.63531	-4328.3389	-373.56967	483.39987	-4365.3511	-284.95636	334.85928	-4425.0117	-261.88071	193.5414	-4515.6445	-334.59314	187.58058	-4575.0161	-269.38367	194.79066	-4643.6387	-374.65527	63.682205	-4472.1074	-314.74829	94.70105	-4452.4072	-320.35071	68.49469	-4415.5981	-97.874458	506.07193	-4616.5068	-229.52621	498.99954	-4611.8081	-97.324211	455.07083	-4655.4702	-193.07741	309.26971	-4700.1001	-153.77016	154.67409	-4848.0317	-235.51279	155.25877	-4800.8403	-224.4035	153.62546	-4925.8115	-104.11692	41.409199	-4772.1592	-169.06461	52.609428	-4735.3291	-172.08101	41.354939	-4707.9707
330	3.29	-220.82504	1346.2115	-4312.1626	-17.263998	1422.2314	-4379.3804	-394.40634	1409.9888	-4403.6743	-87.418999	967.56226	-4421.3921	-344.68842	998.16333	-4415.1035	-276.26932	1032.9618	-4585.4829	-146.48788	1037.7919	-4584.6338	-371.88498	558.80298	-4318.6758	-243.78767	545.73309	-4297.9399	-374.61749	485.9808	-4333.7939	-284.99393	333.92093	-4383.5332	-260.04196	187.60666	-4460.7329	-332.55209	174.72931	-4521.2686	-266.9733	176.89354	-4589.1504	-370.02686	58.380402	-4408.7026	-310.78708	92.411072	-4392.1978	-315.34879	69.139832	-4353.2456	-95.782761	514.43829	-4601.0103	-229.83873	508.42029	-4597.2437	-96.290298	464.68765	-4640.9272	-189.58928	318.78519	-4682.8105	-151.21605	163.80151	-4835.1353	-231.66313	161.58101	-4786.271	-223.07378	168.79659	-4909.9326	-104.22099	41.959019	-4769.6392	-168.9397	52.24625	-4732.0039	-171.89967	41.284313	-4706.5952
331	3.3	-222.35245	1353.5981	-4286.5049	-18.293104	1429.2222	-4351.5415	-394.67383	1416.1892	-4379.8628	-87.579887	972.85083	-4391.9658	-343.77927	1003.822	-4386.3604	-276.07047	1039.3976	-4556.6118	-146.36508	1043.7426	-4555.1401	-372.49612	562.84528	-4292.3813	-245.39944	551.01959	-4268.2534	-375.44907	487.90714	-4303.5767	-285.09256	332.89468	-4342.4712	-258.82794	181.08521	-4408.3896	-331.15018	162.3994	-4466.9697	-266.37869	160.30942	-4535.5059	-365.34995	54.509075	-4345.2041	-306.70703	91.098961	-4332.2695	-310.52536	71.430038	-4291.3994	-94.882263	522.67871	-4582.4092	-228.70612	517.06415	-4579.2539	-94.733185	473.87473	-4624.5908	-185.91139	326.11887	-4665.4727	-148.03552	172.35461	-4820.1772	-227.18294	167.18671	-4769.9492	-221.13882	184.66006	-4891.1011	-103.8339	43.378994	-4766.8379	-168.73744	51.733105	-4728.2529	-171.89059	40.751118	-4704.9414
332	3.31	-223.92688	1360.5664	-4260.894	-19.482006	1435.5402	-4323.731	-394.87708	1421.6344	-4355.8154	-87.711082	977.3205	-4363.7471	-343.10251	1007.964	-4358.8701	-275.96091	1046.4156	-4527.4067	-146.45206	1049.5193	-4525.6963	-372.78259	566.04291	-4266.7812	-247.08961	555.34406	-4239.6504	-376.00888	489.2139	-4274.6353	-285.33289	331.50928	-4301.9434	-258.42371	175.23299	-4356.6064	-330.01007	150.71652	-4412.5034	-266.36697	144.48412	-4481.5918	-360.8356	51.933887	-4282.2427	-303.22916	91.414459	-4272.959	-305.87289	75.318001	-4230.4224	-91.786491	530.22137	-4563.2769	-225.9043	522.6441	-4557.4775	-92.569229	482.06949	-4606.0254	-181.41908	332.48877	-4646.4634	-143.63203	181.41328	-4804.1787	-221.92656	172.71478	-4752.3545	-218.51224	201.26349	-4870.0264	-104.10623	44.95789	-4763.4819	-168.03494	51.871704	-4723.6885	-171.38687	39.861881	-4702.1421
333	3.32	-225.64442	1367.0251	-4235.0137	-20.653593	1441.2631	-4296.2188	-395.04422	1426.2195	-4331.437	-87.900879	981.53687	-4335.4775	-342.5639	1011.871	-4330.7695	-275.93414	1053.3716	-4497.7441	-146.72969	1054.9449	-4496.3174	-372.58145	568.29315	-4241.6738	-248.40543	558.69006	-4212.3604	-376.24234	489.53946	-4246.4517	-285.62802	329.80157	-4262.1963	-258.13638	170.16229	-4305.6758	-329.50497	140.26431	-4358.4766	-267.21057	129.85826	-4427.8945	-356.51804	51.056057	-4220.4893	-299.80374	92.496857	-4215.4985	-301.65186	80.470612	-4171.5532	-89.160324	536.49457	-4541.4761	-222.33943	526.19171	-4532.5493	-90.019226	488.9006	-4585.1133	-176.69153	338.0224	-4626.5239	-139.64684	189.60417	-4786.9873	-216.41327	178.72522	-4734.5337	-215.22752	218.02646	-4847.7344	-103.83015	48.668121	-4760.0073	-166.74416	53.160713	-4717.7432	-169.78116	39.104275	-4697.7188
334	3.33	-227.46217	1372.9214	-4209.0117	-22.074207	1445.6613	-4268.6763	-395.22345	1429.8141	-4306.8271	-88.056458	985.54822	-4307.2612	-341.78961	1014.6495	-4302.7441	-276.09085	1059.692	-4467.6294	-147.09447	1059.7991	-4467.1768	-371.3429	569.11169	-4217.8433	-249.18732	560.31543	-4186.5142	-375.94626	489.0658	-4218.8149	-285.62665	328.00818	-4223.4912	-257.77203	166.47003	-4255.7383	-329.3992	131.43906	-4305.2803	-268.42523	116.57903	-4375.1011	-352.38303	51.941002	-4160.5312	-296.31879	94.779427	-4159.9341	-297.39355	86.624367	-4115.189	-86.460884	540.90363	-4517.522	-218.48291	528.23755	-4505.8896	-87.20507	494.08313	-4562.0879	-172.03337	342.76538	-4605.6655	-135.08163	198.89589	-4770.2871	-210.98796	185.54141	-4716.8696	-211.29182	234.28491	-4825.5063	-103.79884	52.905239	-4755.7412	-164.97104	55.632671	-4710.7568	-168.23152	37.932735	-4693.1846
335	3.34	-229.3502	1377.9871	-4182.9878	-23.455137	1449.2075	-4241.5386	-395.34857	1432.2438	-4282.0322	-88.482368	989.27588	-4279.0146	-341.31308	1016.7918	-4274.6162	-276.35916	1064.9196	-4437.2437	-147.40797	1063.8037	-4438.4224	-369.33456	568.4024	-4195.417	-248.95699	560.44476	-4162.0273	-375.06293	487.56512	-4191.5571	-285.14163	326.25253	-4186.1602	-257.21021	162.75813	-4208.3506	-329.14682	124.06877	-4253.5044	-269.91705	104.70963	-4323.6865	-348.92264	54.845608	-4103.1963	-293.4967	97.96344	-4107.3062	-293.07574	93.182251	-4061.7585	-83.962807	543.82977	-4491.6172	-214.47328	528.5531	-4477.3545	-84.449234	497.81012	-4536.9961	-167.87685	346.90759	-4584.0342	-130.90581	208.68849	-4752.8379	-205.94046	193.04228	-4699.1021	-207.01711	249.58897	-4802.8262	-103.07483	59.323338	-4750.3848	-162.38422	58.172009	-4705.9185	-165.97638	37.691113	-4687.4258
336	3.35	-231.17259	1382.1912	-4157.1045	-24.788237	1451.678	-4214.8125	-395.67038	1433.4908	-4256.9902	-88.854897	992.36005	-4250.9058	-340.95001	1018.0472	-4246.6509	-276.63095	1068.6676	-4406.8081	-147.5264	1066.7559	-4410.0332	-367.60681	566.90808	-4172.957	-247.85577	559.31787	-4138.9331	-373.90695	485.49985	-4164.8232	-284.19226	324.13983	-4150.3154	-256.35657	159.45924	-4163.1113	-328.7623	118.47442	-4204.4546	-270.75629	94.370209	-4274.2661	-346.03406	58.591297	-4049.7371	-290.55853	101.49626	-4057.4006	-289.66089	99.843239	-4011.9619	-81.753998	544.98108	-4463.7578	-210.91034	527.34857	-4447.2183	-81.851013	500.1387	-4510.0039	-164.13515	350.34857	-4561.3096	-126.30625	218.8163	-4734.6079	-201.4958	200.52458	-4680.7266	-202.21298	264.27917	-4779.2446	-101.73	67.554138	-4742.9014	-159.09741	65.277817	-4693.5938	-164.32863	36.865284	-4682.5215
337	3.36	-232.96568	1385.2229	-4131.3613	-26.045826	1453.0726	-4188.4551	-396.16711	1433.5635	-4231.853	-89.09214	994.43036	-4222.8989	-340.69745	1018.3508	-4218.9023	-276.63773	1069.984	-4378.6167	-147.42813	1068.4049	-4381.9951	-366.51135	564.78748	-4149.7637	-246.19647	556.82275	-4117.1934	-372.72766	482.98938	-4138.9409	-283.06693	322.01971	-4115.9844	-255.38222	156.95441	-4120.2266	-327.80649	113.62588	-4158.9326	-269.83478	85.914726	-4227.5381	-344.44226	61.892258	-4001.2952	-289.18686	104.19009	-4011.5137	-288.26102	105.50295	-3966.113	-79.581131	544.65076	-4434.1865	-206.95886	524.78381	-4415.3174	-79.290749	500.94843	-4481.2251	-160.86832	352.78589	-4537.3193	-122.32069	228.22214	-4713.9692	-197.76268	207.49292	-4661.6001	-196.48515	277.71332	-4754.0923	-100.16459	75.747986	-4732.793	-156.95705	70.74437	-4686.3213	-163.12285	37.083382	-4676.0791
338	3.37	-234.57225	1387.105	-4105.8447	-27.285954	1453.2939	-4162.4961	-396.66428	1432.3046	-4206.6572	-89.209557	995.33014	-4195.106	-340.55124	1017.7368	-4191.5	-276.09125	1069.6592	-4351.3486	-147.20062	1068.6029	-4354.2109	-365.91553	562.06696	-4125.4419	-243.89648	553.58624	-4096.2725	-371.50848	479.97595	-4113.3413	-282.20776	319.89224	-4082.7837	-254.69753	154.40759	-4079.6223	-326.29562	109.36572	-4117.8989	-267.18439	79.926826	-4184.6875	-344.047	63.06649	-3958.7236	-289.2923	105.55817	-3969.7114	-288.63513	108.87733	-3924.4722	-77.552124	542.76575	-4402.8921	-203.44797	521.43988	-4382.7583	-76.677361	500.16116	-4450.4839	-158.13954	354.45685	-4512.1567	-118.32095	237.0471	-4692.7388	-194.8895	214.11136	-4642.4434	-190.69777	289.80371	-4729.8833	-98.738327	83.257805	-4721.2842	-155.7636	78.932564	-4672.6519	-163.43695	39.937588	-4668.7944
